<svg xmlns="http://www.w3.org/2000/svg" xmlns:xlink="http://www.w3.org/1999/xlink" width="256" height="256" viewBox="0 0 256 256" fill="none">
<path     fill="#CFCFCF"  d="M0 192L0 64C0 28.6538 28.6538 0 64 0L192 0C227.346 0 256 28.6538 256 64L256 192C256 227.346 227.346 256 192 256L64 256C28.6538 256 0 227.346 0 192Z">
</path>
<path d="M64.6132 65.412C70.7861 60.5599 78.6806 57.7628 86.5751 58.0197C125.884 58.0156 165.196 57.9707 204.509 58.0319C204.476 61.7505 204.574 65.465 204.476 69.1795C166.131 69.2325 127.785 69.1917 89.4402 69.2121C81.431 68.7269 72.9258 71.6137 67.8882 78.0438C63.8631 83.161 61.6825 89.7785 62.3301 96.282C63.0802 102.822 66.5192 108.954 71.5239 113.228C76.6681 117.888 83.4394 120.436 90.2805 121.26C92.3259 121.338 94.3548 121.688 96.4084 121.639C111.3 121.643 126.195 121.639 141.086 121.643C143.902 121.66 146.792 121.46 149.501 122.394C155.228 123.967 160.507 127.613 163.38 132.86C166.004 137.325 166.959 142.703 166.073 147.796C164.905 153.386 161.392 158.389 156.568 161.463C152.121 164.293 146.747 165.586 141.492 165.369C111.771 165.357 82.0499 165.382 52.3288 165.361C52.2837 161.549 52.2551 157.741 52.3124 153.928C82.4516 153.892 112.591 153.908 142.73 153.932C145.612 154.059 148.571 153.309 150.944 151.661C153.559 149.822 154.973 146.666 155.15 143.547C154.891 140.138 153.133 136.803 150.165 134.985C146.919 132.767 142.812 132.832 139.037 132.86C123.203 132.828 107.365 132.926 91.5307 132.803C81.5253 132.253 71.5772 128.563 63.9779 121.998C57.0753 116.102 52.3083 107.711 51.1279 98.704C50.9557 95.7152 50.9762 92.7143 51.0787 89.7215C51.9927 80.2333 57.0385 71.2427 64.6132 65.412Z"   fill="#373636" >
</path>
<path d="M75.4451 81.1425C78.5644 78.3535 82.7903 76.8694 86.9712 76.9346C126.121 76.9091 165.272 77.0389 204.421 76.9265L204.421 82.5247C204.421 82.5247 126.952 82.5207 88.2214 82.5125C86.7499 82.541 85.262 82.4636 83.8151 82.7408C80.3925 83.5522 77.2814 85.9905 76.1132 89.3503C74.9204 92.4695 75.0475 96.0372 76.4985 99.0504C79.089 104.975 85.6473 108.298 91.894 108.685C113.761 108.714 135.629 108.694 157.497 108.706C168.736 108.706 179.708 112.719 187.661 118.814C190.628 120.987 193.288 123.543 195.727 126.288C200.265 131.845 203.532 138.454 204.974 145.48C206.975 153.402 205.909 161.838 203.031 169.414C196.854 185.337 182.033 198.366 159.534 197.98C124.156 198.017 88.7747 197.98 53.393 197.997C52.8561 198.025 52.065 197.96 52.065 197.259C51.9543 193.601 52.0568 189.94 52.0404 186.282C85.9588 186.213 119.881 186.27 153.8 186.246C168.965 186.282 175.667 185.051 184.205 176.664C189.296 171.95 192.747 165.553 193.969 158.752C194.891 152.061 193.768 145.015 190.308 139.156C188.062 134.899 184.771 131.262 181.02 128.265C179.856 127.307 178.532 126.557 177.106 126.071C177.737 128.224 179.094 130.051 179.983 132.094C182.394 137.468 183.644 143.4 183.467 149.288C183.029 156.085 180.57 162.911 175.811 167.914C170.195 173.985 162.079 177.333 153.931 178.23C148.733 179.037 143.462 178.69 138.224 178.751L52.3109 178.772L52.2986 173.1C52.2986 173.1 118.152 173.611 150.525 172.77C153.271 172.77 155.923 171.971 158.558 171.29C165.936 169.243 172.63 163.963 175.36 156.713C177.077 152.603 177.253 148.057 176.827 143.682C174.839 130.451 164.321 119.185 151.484 115.539C147.971 114.573 144.335 113.917 140.683 113.986C124.833 113.974 108.982 113.99 93.1359 113.978C86.9058 114.068 80.7655 111.576 76.1583 107.446C72.662 104.098 70.2272 99.5275 70.0264 94.6509C69.8952 89.6806 71.7315 84.5553 75.4451 81.1425Z"   fill="#373636" >
</path>
<path d="M84.609 90.7032C86.6544 89.4188 89.1711 89.5656 91.487 89.5819C98.0952 89.5819 189.102 89.7287 189.102 89.7287L189.102 95.0701C189.102 95.0701 150.763 95.2124 144.748 95.221C143.449 95.0864 142.203 95.9101 141.78 97.1251C141.617 98.5196 141.547 99.9263 141.334 101.317C124.987 101.398 108.641 101.309 92.2945 101.353C88.9416 101.512 85.5764 99.8774 83.572 97.2148C82.1333 95.2618 82.3956 91.9917 84.609 90.7032Z"   fill="#373636" >
</path>
<path d="M71.603 140.546L137.431 140.627L137.526 145.806L71.603 145.806L71.603 140.546Z"   fill="#373636" >
</path>
</svg>
